<?xml version="1.0" encoding="utf-8"?>
<!-- Generator: Adobe Illustrator 16.0.0, SVG Export Plug-In . SVG Version: 6.00 Build 0)  -->
<!DOCTYPE svg PUBLIC "-//W3C//DTD SVG 1.1//EN" "http://www.w3.org/Graphics/SVG/1.1/DTD/svg11.dtd">
<svg version="1.1" id="Capa_1" xmlns="http://www.w3.org/2000/svg" xmlns:xlink="http://www.w3.org/1999/xlink" x="0px" y="0px"
	 width="1400px" height="1037px" viewBox="0 0 1400 1037" enable-background="new 0 0 1400 1037" xml:space="preserve">
<g>
	<circle fill="#1F80AA" cx="397.497" cy="421.883" r="9.884"/>
	<circle fill="#1F80AA" cx="897.716" cy="882.25" r="9.884"/>
	<circle fill="#001D2F" cx="1146.23" cy="555.32" r="9.884"/>
	<circle fill="#001D2F" cx="330.139" cy="527.5" r="4.303"/>
	<circle fill="#001D2F" cx="50.908" cy="439.777" r="4.303"/>
	<circle fill="#001D2F" cx="105.877" cy="725.617" r="4.303"/>
	<circle fill="#00FFFF" cx="945.435" cy="420.008" r="4.303"/>
	<circle fill="#1F80AA" cx="1005.976" cy="497.848" r="5.538"/>
	<circle fill="#1F80AA" cx="500.259" cy="653.136" r="5.539"/>
	<circle fill="#00FFFF" cx="223.883" cy="510.203" r="2.45"/>
	<circle fill="#00FFFF" cx="387.417" cy="779.552" r="2.45"/>
	<circle fill="#1F80AA" cx="1327.214" cy="457.075" r="2.45"/>
	<circle fill="#1F80AA" cx="1274.994" cy="840.485" r="2.45"/>
	<linearGradient id="SVGID_1_" gradientUnits="userSpaceOnUse" x1="685.9937" y1="553.4468" x2="690.8936" y2="553.4468">
		<stop  offset="0.0471" style="stop-color:#0086BC"/>
		<stop  offset="0.9895" style="stop-color:#005BE0"/>
	</linearGradient>
	<circle fill="url(#SVGID_1_)" cx="688.444" cy="553.447" r="2.45"/>
	<linearGradient id="SVGID_2_" gradientUnits="userSpaceOnUse" x1="794.5576" y1="826.918" x2="799.457" y2="826.918">
		<stop  offset="0.0471" style="stop-color:#0086BC"/>
		<stop  offset="0.9895" style="stop-color:#005BE0"/>
	</linearGradient>
	<circle fill="url(#SVGID_2_)" cx="797.007" cy="826.918" r="2.45"/>
	<circle fill="#001D2F" cx="1154.24" cy="422.48" r="2.449"/>
	<circle fill="#001D2F" cx="1066.29" cy="957.056" r="2.45"/>
	<circle fill="#001D2F" cx="1332.89" cy="777.031" r="2.45"/>
	<circle fill="#001D2F" cx="776.327" cy="327.658" r="2.45"/>
	<circle fill="#001D2F" cx="931.615" cy="742.676" r="2.45"/>
	
		<rect x="173.682" y="420.03" transform="matrix(0.8163 0.5777 -0.5777 0.8163 276.4207 -24.1342)" fill="#99CDDE" width="4.942" height="4.941"/>
	<polygon fill="#00FFFF" points="726.033,597.146 733.299,584.463 745.984,591.725 738.719,604.407 	"/>
	<polygon fill="#1F80AA" points="1219.381,708.46 1226.646,695.774 1239.333,703.038 1232.067,715.72 	"/>
	
		<rect x="637.907" y="362.66" transform="matrix(-0.9104 0.4137 -0.4137 -0.9104 1375.1603 433.1046)" fill="#1F80AA" width="5.562" height="5.562"/>
	
		<rect x="119.075" y="540.818" transform="matrix(-0.9725 0.2328 -0.2328 -0.9725 371.4636 1047.4692)" fill="#00FFFF" width="9.677" height="9.678"/>
	
		<rect x="1267.332" y="507.557" transform="matrix(0.3982 0.9173 -0.9173 0.3982 1233.1239 -858.0844)" fill="#99CDDE" width="6.406" height="6.406"/>
	
		<rect x="746.499" y="456.71" transform="matrix(0.3981 0.9173 -0.9173 0.3981 873.0992 -410.9178)" fill="#99CDDE" width="6.407" height="6.407"/>
	<circle fill="#1F80AA" cx="978.772" cy="259.693" r="9.884"/>
	<circle fill="#001D2F" cx="230.039" cy="126.256" r="9.884"/>
	<circle fill="#001D2F" cx="279.51" cy="669.076" r="9.885"/>
	<circle fill="#001D2F" cx="1046.131" cy="154.076" r="4.303"/>
	<circle fill="#001D2F" cx="1325.361" cy="241.799" r="4.303"/>
	<circle fill="#00FFFF" cx="430.835" cy="261.566" r="4.302"/>
	<circle fill="#00FFFF" cx="1084.967" cy="819.504" r="4.303"/>
	<path fill="#00FFFF" d="M537.903,782.398c0-3.859,3.13-6.992,6.992-6.992c3.865,0,6.992,3.133,6.992,6.992
		c0,3.863-3.127,6.996-6.992,6.996C541.033,789.395,537.903,786.262,537.903,782.398z"/>
	<circle fill="#1F80AA" cx="370.293" cy="183.729" r="5.538"/>
	<circle fill="#1F80AA" cx="440.379" cy="940.93" r="5.538"/>
	<circle fill="#00FFFF" cx="1152.387" cy="171.374" r="2.45"/>
	<circle fill="#1F80AA" cx="64.171" cy="871.764" r="2.449"/>
	
		<linearGradient id="SVGID_3_" gradientUnits="userSpaceOnUse" x1="702.4863" y1="3116.6006" x2="707.3848" y2="3116.6006" gradientTransform="matrix(-1 0 0 -1 1392.7617 3244.7305)">
		<stop  offset="0.0471" style="stop-color:#0086BC"/>
		<stop  offset="0.9895" style="stop-color:#005BE0"/>
	</linearGradient>
	<circle fill="url(#SVGID_3_)" cx="687.826" cy="128.129" r="2.45"/>
	<circle fill="#001D2F" cx="222.029" cy="259.096" r="2.449"/>
	
		<rect x="1197.647" y="256.605" transform="matrix(-0.8162 -0.5777 0.5777 -0.8162 2030.0446 1163.8533)" fill="#99CDDE" width="4.941" height="4.943"/>
	<polygon fill="#00FFFF" points="650.235,84.431 642.97,97.115 630.284,89.851 637.549,77.169 	"/>
	<polygon fill="#00FFFF" points="229.721,847.128 222.456,859.813 209.77,852.549 217.035,839.866 	"/>
	
		<rect x="1247.517" y="131.079" transform="matrix(0.9725 -0.2328 0.2328 0.9725 2.7732 295.3301)" fill="#00FFFF" width="9.678" height="9.678"/>
	
		<rect x="102.532" y="167.613" transform="matrix(-0.3982 -0.9173 0.9173 -0.3982 -8.8577 335.8214)" fill="#99CDDE" width="6.405" height="6.406"/>
</g>
</svg>
